<mxfile host="app.diagrams.net" modified="2023-02-10T11:45:48.581Z" agent="5.0 (Macintosh; Intel Mac OS X 10_15_7) AppleWebKit/537.36 (KHTML, like Gecko) Chrome/107.0.0.0 Safari/537.36" etag="Te5P4lkabkZ0nkwPuQM3" version="20.8.19" type="github">
  <diagram name="第 1 页" id="FJHFNjM4gexUHc76eIYy">
    <mxGraphModel dx="1026" dy="683" grid="1" gridSize="10" guides="1" tooltips="1" connect="1" arrows="1" fold="1" page="1" pageScale="1" pageWidth="827" pageHeight="1169" math="0" shadow="0">
      <root>
        <mxCell id="0" />
        <mxCell id="1" parent="0" />
        <mxCell id="3b2y6Ocs_cU4srnl9FrQ-1" value="&lt;b&gt;&lt;font style=&quot;font-size: 18px;&quot;&gt;优化前&lt;/font&gt;&lt;/b&gt;" style="text;html=1;align=center;verticalAlign=middle;resizable=0;points=[];autosize=1;strokeColor=none;fillColor=none;" vertex="1" parent="1">
          <mxGeometry x="270" y="110" width="80" height="40" as="geometry" />
        </mxCell>
        <mxCell id="3b2y6Ocs_cU4srnl9FrQ-2" value="&lt;b&gt;&lt;font style=&quot;font-size: 18px;&quot;&gt;优化后&lt;/font&gt;&lt;/b&gt;" style="text;html=1;align=center;verticalAlign=middle;resizable=0;points=[];autosize=1;strokeColor=none;fillColor=none;" vertex="1" parent="1">
          <mxGeometry x="600" y="110" width="80" height="40" as="geometry" />
        </mxCell>
        <mxCell id="3b2y6Ocs_cU4srnl9FrQ-9" style="edgeStyle=orthogonalEdgeStyle;rounded=0;orthogonalLoop=1;jettySize=auto;html=1;entryX=0;entryY=0.5;entryDx=0;entryDy=0;fontSize=18;" edge="1" parent="1" source="3b2y6Ocs_cU4srnl9FrQ-3" target="3b2y6Ocs_cU4srnl9FrQ-7">
          <mxGeometry relative="1" as="geometry" />
        </mxCell>
        <mxCell id="3b2y6Ocs_cU4srnl9FrQ-3" value="初始化" style="rounded=1;whiteSpace=wrap;html=1;fontSize=18;" vertex="1" parent="1">
          <mxGeometry x="40" y="240" width="120" height="60" as="geometry" />
        </mxCell>
        <mxCell id="3b2y6Ocs_cU4srnl9FrQ-10" value="" style="edgeStyle=orthogonalEdgeStyle;rounded=0;orthogonalLoop=1;jettySize=auto;html=1;fontSize=18;" edge="1" parent="1" source="3b2y6Ocs_cU4srnl9FrQ-4" target="3b2y6Ocs_cU4srnl9FrQ-7">
          <mxGeometry relative="1" as="geometry" />
        </mxCell>
        <mxCell id="3b2y6Ocs_cU4srnl9FrQ-4" value="抽奖" style="rounded=1;whiteSpace=wrap;html=1;fontSize=18;" vertex="1" parent="1">
          <mxGeometry x="40" y="330" width="120" height="60" as="geometry" />
        </mxCell>
        <mxCell id="3b2y6Ocs_cU4srnl9FrQ-11" style="edgeStyle=orthogonalEdgeStyle;rounded=0;orthogonalLoop=1;jettySize=auto;html=1;entryX=0;entryY=0.5;entryDx=0;entryDy=0;fontSize=18;" edge="1" parent="1" source="3b2y6Ocs_cU4srnl9FrQ-5" target="3b2y6Ocs_cU4srnl9FrQ-7">
          <mxGeometry relative="1" as="geometry" />
        </mxCell>
        <mxCell id="3b2y6Ocs_cU4srnl9FrQ-5" value="抽奖" style="rounded=1;whiteSpace=wrap;html=1;fontSize=18;" vertex="1" parent="1">
          <mxGeometry x="40" y="420" width="120" height="60" as="geometry" />
        </mxCell>
        <mxCell id="3b2y6Ocs_cU4srnl9FrQ-13" value="" style="edgeStyle=orthogonalEdgeStyle;rounded=0;orthogonalLoop=1;jettySize=auto;html=1;fontSize=18;" edge="1" parent="1" source="3b2y6Ocs_cU4srnl9FrQ-7" target="3b2y6Ocs_cU4srnl9FrQ-12">
          <mxGeometry relative="1" as="geometry" />
        </mxCell>
        <mxCell id="3b2y6Ocs_cU4srnl9FrQ-7" value="API" style="rounded=1;whiteSpace=wrap;html=1;fontSize=18;" vertex="1" parent="1">
          <mxGeometry x="230" y="330" width="120" height="60" as="geometry" />
        </mxCell>
        <mxCell id="3b2y6Ocs_cU4srnl9FrQ-12" value="IDIP服务器" style="rounded=1;whiteSpace=wrap;html=1;fontSize=18;" vertex="1" parent="1">
          <mxGeometry x="395" y="330" width="120" height="60" as="geometry" />
        </mxCell>
      </root>
    </mxGraphModel>
  </diagram>
</mxfile>
